<?xml version="1.0" encoding="UTF-8" standalone="no"?>
<!-- Created with Inkscape (http://www.inkscape.org/) -->
<svg id="svg4219" xmlns:rdf="http://www.w3.org/1999/02/22-rdf-syntax-ns#" xmlns="http://www.w3.org/2000/svg" height="2850" width="2756" version="1.1" xmlns:cc="http://creativecommons.org/ns#" xmlns:dc="http://purl.org/dc/elements/1.1/" viewBox="0 0 2756 2850">
 <defs id="defs4221">
  <marker id="marker11203" refY="0" refX="0" orient="auto" overflow="visible">
   <path id="path11205" d="m0 0 5-5-17.5 5 17.5 5-5-5z" fill-rule="evenodd" transform="matrix(-.8 0 0 -.8 -10 0)" stroke="#00f" stroke-width="1pt" fill="#00f"/>
  </marker>
  <marker id="marker10933" refY="0" refX="0" orient="auto" overflow="visible">
   <path id="path10935" d="m0 0 5-5-17.5 5 17.5 5-5-5z" fill-rule="evenodd" transform="matrix(-.8 0 0 -.8 -10 0)" stroke="#00f" stroke-width="1pt" fill="#00f"/>
  </marker>
  <marker id="marker10621" refY="0" refX="0" orient="auto" overflow="visible">
   <path id="path10623" d="m0 0 5-5-17.5 5 17.5 5-5-5z" fill-rule="evenodd" transform="matrix(-.8 0 0 -.8 -10 0)" stroke="#00f" stroke-width="1pt" fill="#00f"/>
  </marker>
  <marker id="marker10351" refY="0" refX="0" overflow="visible" orient="auto">
   <path id="path10353" d="m0 0 5-5-17.5 5 17.5 5-5-5z" fill-rule="evenodd" transform="matrix(-.8 0 0 -.8 -10 0)" stroke="#00f" stroke-width="1pt" fill="#00f"/>
  </marker>
  <marker id="marker10063" refY="0" refX="0" orient="auto" overflow="visible">
   <path id="path10065" d="m0 0 5-5-17.5 5 17.5 5-5-5z" fill-rule="evenodd" transform="matrix(-.8 0 0 -.8 -10 0)" stroke="#00f" stroke-width="1pt" fill="#00f"/>
  </marker>
  <marker id="marker9847" refY="0" refX="0" overflow="visible" orient="auto">
   <path id="path9849" d="m0 0 5-5-17.5 5 17.5 5-5-5z" fill-rule="evenodd" transform="matrix(-.8 0 0 -.8 -10 0)" stroke="#00f" stroke-width="1pt" fill="#00f"/>
  </marker>
  <marker id="marker9759" refY="0" refX="0" overflow="visible" orient="auto">
   <path id="path9761" d="m0 0 5-5-17.5 5 17.5 5-5-5z" fill-rule="evenodd" transform="matrix(-.8 0 0 -.8 -10 0)" stroke="#00f" stroke-width="1pt" fill="#00f"/>
  </marker>
  <marker id="marker9677" refY="0" refX="0" overflow="visible" orient="auto">
   <path id="path9679" d="m0 0 5-5-17.5 5 17.5 5-5-5z" fill-rule="evenodd" transform="matrix(-.8 0 0 -.8 -10 0)" stroke="#00f" stroke-width="1pt" fill="#00f"/>
  </marker>
  <marker id="marker9601" refY="0" refX="0" overflow="visible" orient="auto">
   <path id="path9603" d="m0 0 5-5-17.5 5 17.5 5-5-5z" fill-rule="evenodd" transform="matrix(-.8 0 0 -.8 -10 0)" stroke="#00f" stroke-width="1pt" fill="#00f"/>
  </marker>
  <marker id="marker7870" refY="0" refX="0" orient="auto" overflow="visible">
   <path id="path7872" d="m0 0 5-5-17.5 5 17.5 5-5-5z" fill-rule="evenodd" transform="matrix(-.8 0 0 -.8 -10 0)" stroke="#00f" stroke-width="1pt" fill="#00f"/>
  </marker>
 </defs>
 <metadata id="metadata4224">
  <rdf:RDF>
   <cc:Work rdf:about="">
    <dc:format>image/svg+xml</dc:format>
    <dc:type rdf:resource="http://purl.org/dc/dcmitype/StillImage"/>
    <dc:title/>
   </cc:Work>
  </rdf:RDF>
 </metadata>
 <g id="layer1" fill-rule="evenodd" transform="translate(0 1797.6)">
  <rect id="rect9566" fill-opacity=".66667" height="3282" width="2755.9" y="-1947.6" x="0" fill="#444"/>
  <path id="path4769" stroke-linejoin="round" d="m-366.14 974.03a110 110 0 0 0 -27.857 73 110 110 0 0 0 27.895 73h164.25a110 110 0 0 0 27.855 -73 110 110 0 0 0 -27.896 -73h-164.25z" fill-opacity=".26667" stroke="#000" stroke-linecap="round" stroke-width="2" fill="#faa"/>
  <g stroke-linejoin="round" stroke="#000" stroke-linecap="round" stroke-width="8" fill="#fff">
   <rect id="rect4774" rx="40" ry="40" height="156" width="220" y="500.36" x="158.95"/>
   <rect id="rect9472" rx="40" ry="40" height="156" width="220" y="874.36" x="158.95"/>
   <rect id="rect9474" rx="40" ry="40" height="156" width="220" y="126.36" x="158.95"/>
   <rect id="rect9480" rx="40" ry="40" height="156" width="220" y="-247.64" x="158.95"/>
   <rect id="rect9486" rx="40" ry="40" height="156" width="220" y="-621.64" x="158.95"/>
   <rect id="rect9492" rx="40" ry="40" height="156" width="220" y="-995.64" x="158.95"/>
   <rect id="rect9498" rx="40" ry="40" height="156" width="220" y="-1369.6" x="158.95"/>
   <rect id="rect9504" rx="40" ry="40" height="156" width="220" y="-1743.6" x="158.95"/>
   <rect id="rect9518" rx="40" ry="40" height="156" width="220" y="500.36" x="2377"/>
   <rect id="rect9520" rx="40" ry="40" height="156" width="220" y="874.36" x="2377"/>
   <rect id="rect9522" rx="40" ry="40" height="156" width="220" y="126.36" x="2377"/>
   <rect id="rect9524" rx="40" ry="40" height="156" width="220" y="-247.64" x="2377"/>
   <rect id="rect9526" rx="40" ry="40" height="156" width="220" y="-621.64" x="2377"/>
   <rect id="rect9528" rx="40" ry="40" height="156" width="220" y="-995.64" x="2377"/>
   <rect id="rect9530" rx="40" ry="40" height="156" width="220" y="-1369.6" x="2377"/>
   <rect id="rect9532" rx="40" ry="40" height="156" width="220" y="-1743.6" x="2377"/>
  </g>
 </g>
 <g id="layer3" transform="translate(0,2110)" display="none" fill="none">
  <g stroke="#f80">
   <path id="path9163" d="m268.95 266v187"/>
   <path id="path9165" d="m268.95 453v187"/>
   <path id="path9476" d="m268.95-108v187"/>
   <path id="path9478" d="m268.95 79v187"/>
   <path id="path9482" d="m268.95-482v187"/>
   <path id="path9484" d="m268.95-295v187"/>
   <path id="path9488" d="m268.95-856v187"/>
   <path id="path9490" d="m268.95-669v187"/>
   <path id="path9494" d="m268.95-1230v187"/>
   <path id="path9496" d="m268.95-1043v187"/>
   <path id="path9500" d="m268.95-1604v187"/>
   <path id="path9502" d="m268.95-1417v187"/>
   <path id="path9506" d="m268.95-1978v187"/>
   <path id="path9508" d="m268.95-1791v187"/>
  </g>
  <path id="path9510" d="m-284 548.07v186.6" stroke="#f00"/>
  <path id="path9514" d="m268.95-1978h2218" stroke="#000" stroke-width="1.42px"/>
  <path id="path9516" d="m0-1978h2755.9" stroke-opacity=".34510" stroke="#0f0" stroke-width="5.0054"/>
  <g stroke="#f80">
   <path id="path9534" d="m2487 266v187"/>
   <path id="path9536" d="m2487 453v187"/>
   <path id="path9538" d="m2487-108v187"/>
   <path id="path9540" d="m2487 79v187"/>
   <path id="path9542" d="m2487-482v187"/>
   <path id="path9544" d="m2487-295v187"/>
   <path id="path9546" d="m2487-856v187"/>
   <path id="path9548" d="m2487-669v187"/>
   <path id="path9550" d="m2487-1230v187"/>
   <path id="path9552" d="m2487-1043v187"/>
   <path id="path9554" d="m2487-1604v187"/>
   <path id="path9556" d="m2487-1417v187"/>
   <path id="path9558" d="m2487-1978v187"/>
   <path id="path9560" d="m2487-1791v187"/>
  </g>
  <path id="path9562" d="m268.95 640h2218" stroke="#000" stroke-width="1.42px"/>
  <path id="path9564" d="m0 640h2755.9" stroke-opacity=".34510" stroke="#0f0" stroke-width="5.0054"/>
 </g>
 <g id="layer2" transform="translate(0,2110)">
  <g font-size="135px" font-family="&apos;Bitstream Vera Sans&apos;" fill="#000000">
   <g stroke="#ffffff" stroke-width="15">
    <text id="text12691" style="word-spacing:0px;letter-spacing:-1px" line-height="110.00000238%" y="-1978" x="1377.95" xml:space="preserve"><tspan id="tspan12693" style="letter-spacing:0px;text-anchor:middle;text-align:center" line-height="110.00000238%" y="-1978" x="1377.95">1.37795&quot;</tspan><tspan id="tspan12695" style="letter-spacing:0px;text-anchor:middle;text-align:center" line-height="110.00000238%" y="-1780" x="1377.95">(35 mm)</tspan></text>
    <text id="text12697" line-height="110.00000238%" style="word-spacing:0px;letter-spacing:-1px" xml:space="preserve" y="-1604" x="1377.95"><tspan id="tspan12699" style="letter-spacing:0px;text-anchor:middle;text-align:center" line-height="110.00000238%" y="-1604" x="1377.95">1.109&quot;</tspan><tspan id="tspan12701" style="letter-spacing:0px;text-anchor:middle;text-align:center" line-height="110.00000238%" y="-1455.5" x="1377.95">(28.169 mm)</tspan></text>
    <text id="text12703" style="word-spacing:0px;letter-spacing:-1px" line-height="110.00000238%" y="-1229.9999" x="1377.95" xml:space="preserve"><tspan id="tspan12705" style="letter-spacing:0px;text-anchor:middle;text-align:center" line-height="110.00000238%" y="-1229.9999" x="1377.95">0.999&quot;</tspan><tspan id="tspan12707" style="letter-spacing:0px;text-anchor:middle;text-align:center" line-height="110.00000238%" y="-1081.4999" x="1377.95">(25.375 mm)</tspan></text>
    <text id="text12709" line-height="110.00000238%" style="word-spacing:0px;letter-spacing:-1px" xml:space="preserve" y="-340" x="800"><tspan id="tspan12711" style="letter-spacing:0px;text-anchor:middle;text-align:center" line-height="110.00000238%" y="-340" x="800">0.187&quot;</tspan><tspan id="tspan12713" style="letter-spacing:0px;text-anchor:middle;text-align:center" line-height="110.00000238%" y="-191.5" x="800">(4.7498 mm)</tspan></text>
    <text id="text12715" style="word-spacing:0px;letter-spacing:-1px" line-height="110.00000238%" y="-110" x="1930" xml:space="preserve"><tspan id="tspan12717" style="letter-spacing:0px;text-anchor:middle;text-align:center" line-height="110.00000238%" y="-110" x="1930">0.748&quot;</tspan><tspan id="tspan12719" style="letter-spacing:0px;text-anchor:middle;text-align:center" line-height="110.00000238%" y="38.5" x="1930">(18.999 mm)</tspan></text>
   </g>
   <text id="text11471" style="word-spacing:0px;letter-spacing:-1px" xml:space="preserve" line-height="110.00000238%" y="-1978" x="1377.95"><tspan id="tspan11473" style="letter-spacing:0px;text-anchor:middle;text-align:center" line-height="110.00000238%" y="-1978" x="1377.95">1.37795&quot;</tspan><tspan id="tspan11475" style="letter-spacing:0px;text-anchor:middle;text-align:center" line-height="110.00000238%" y="-1780" x="1377.95">(35 mm)</tspan></text>
   <text id="text11477" style="word-spacing:0px;letter-spacing:-1px" line-height="110.00000238%" y="-1604" x="1377.95" xml:space="preserve"><tspan id="tspan11479" style="letter-spacing:0px;text-anchor:middle;text-align:center" line-height="110.00000238%" y="-1604" x="1377.95">1.109&quot;</tspan><tspan id="tspan11481" style="letter-spacing:0px;text-anchor:middle;text-align:center" line-height="110.00000238%" y="-1455.5" x="1377.95">(28.169 mm)</tspan></text>
   <text id="text11483" style="word-spacing:0px;letter-spacing:-1px" xml:space="preserve" line-height="110.00000238%" y="-1229.9999" x="1377.95"><tspan id="tspan11485" style="letter-spacing:0px;text-anchor:middle;text-align:center" line-height="110.00000238%" y="-1229.9999" x="1377.95">0.999&quot;</tspan><tspan id="tspan11487" style="letter-spacing:0px;text-anchor:middle;text-align:center" line-height="110.00000238%" y="-1081.4999" x="1377.95">(25.375 mm)</tspan></text>
  </g>
  <g stroke="#00f" stroke-width="5" fill="none">
   <path id="path9579" marker-end="url(#marker7870)" d="m1700-1604h786.95"/>
   <path id="path9581" marker-end="url(#marker9601)" d="m1700-1230h676.95"/>
   <path id="path9583" marker-end="url(#marker9759)" d="m2050 90v550"/>
   <path id="path9585" marker-end="url(#marker9847)" d="m1700-1978h1055.9"/>
   <path id="path9587" marker-end="url(#marker9677)" d="m700-648.3v168.3"/>
   <path id="path10061" marker-end="url(#marker10063)" d="m1050-1978h-1050"/>
   <path id="path10349" marker-end="url(#marker10351)" d="m1050-1604h-781.05"/>
   <path id="path10619" marker-end="url(#marker10621)" d="m1050-1230h-671.05"/>
   <path id="path10931" marker-end="url(#marker10933)" d="m700 62.3v-168.3"/>
   <path id="path11201" marker-end="url(#marker11203)" d="m2050-260v-596"/>
  </g>
  <text id="text11489" style="word-spacing:0px;letter-spacing:-1px" font-size="135px" line-height="110.00000238%" y="-340" x="800" font-family="&apos;Bitstream Vera Sans&apos;" xml:space="preserve" fill="#000000"><tspan id="tspan11491" style="letter-spacing:0px;text-anchor:middle;text-align:center" line-height="110.00000238%" y="-340" x="800">0.187&quot;</tspan><tspan id="tspan11493" style="letter-spacing:0px;text-anchor:middle;text-align:center" line-height="110.00000238%" y="-191.5" x="800">(4.7498 mm)</tspan></text>
  <text id="text11495" style="word-spacing:0px;letter-spacing:-1px" xml:space="preserve" font-size="135px" line-height="110.00000238%" y="-110" x="1930" font-family="&apos;Bitstream Vera Sans&apos;" fill="#000000"><tspan id="tspan11497" style="letter-spacing:0px;text-anchor:middle;text-align:center" line-height="110.00000238%" y="-110" x="1930">0.748&quot;</tspan><tspan id="tspan11499" style="letter-spacing:0px;text-anchor:middle;text-align:center" line-height="110.00000238%" y="38.500004" x="1930">(18.999 mm)</tspan></text>
  <g stroke="#00f" stroke-width="5" fill="none">
   <path id="path11501" d="m818.95-482h-550"/>
   <path id="path11503" d="m818.95-108h-550"/>
   <path id="path11685" d="m2487-856h-550"/>
   <path id="path11687" d="m2487 640h-550"/>
  </g>
 </g>
</svg>
